<svg width="30" height="30" viewBox="0 0 30 30" fill="none" xmlns="http://www.w3.org/2000/svg">
<g filter="url(#filter0_d_27_16360)">
<path d="M17 19V7M17 19H19M17 19H12M17 7C17 4.79086 15.2091 3 13 3H9C6.79086 3 5 4.79086 5 7V15C5 16.8652 6.27667 18.4323 8.00384 18.875M17 7H20.2091C20.7172 7 21.2063 7.1934 21.577 7.54093L24.3679 10.1574C24.7712 10.5355 25 11.0636 25 11.6165V17C25 18.1046 24.1046 19 23 19M23 19C23 20.1046 22.1046 21 21 21C19.8954 21 19 20.1046 19 19M23 19C23 17.8954 22.1046 17 21 17C19.8954 17 19 17.8954 19 19M12 19C12 20.1046 11.1046 21 10 21C8.89543 21 8 20.1046 8 19C8 18.958 8.00129 18.9163 8.00384 18.875M12 19C12 17.8954 11.1046 17 10 17C8.93742 17 8.06838 17.8286 8.00384 18.875" stroke="black" stroke-width="1.5"/>
<path d="M13 8L11 8" stroke="black" stroke-width="1.5" stroke-linecap="round" stroke-linejoin="round"/>
<path d="M13 12L9 12" stroke="black" stroke-width="1.5" stroke-linecap="round" stroke-linejoin="round"/>
</g>
<defs>
<filter id="filter0_d_27_16360" x="-1" y="0" width="32" height="32" filterUnits="userSpaceOnUse" color-interpolation-filters="sRGB">
<feFlood flood-opacity="0" result="BackgroundImageFix"/>
<feColorMatrix in="SourceAlpha" type="matrix" values="0 0 0 0 0 0 0 0 0 0 0 0 0 0 0 0 0 0 127 0" result="hardAlpha"/>
<feOffset dy="4"/>
<feGaussianBlur stdDeviation="2"/>
<feComposite in2="hardAlpha" operator="out"/>
<feColorMatrix type="matrix" values="0 0 0 0 0 0 0 0 0 0 0 0 0 0 0 0 0 0 0.25 0"/>
<feBlend mode="normal" in2="BackgroundImageFix" result="effect1_dropShadow_27_16360"/>
<feBlend mode="normal" in="SourceGraphic" in2="effect1_dropShadow_27_16360" result="shape"/>
</filter>
</defs>
</svg>
